{
    "asset" : {
        "generator" : "Khronos glTF Blender I/O v1.2.75",
        "version" : "2.0"
    },
    "scene" : 0,
    "scenes" : [
        {
            "name" : "Scene",
            "nodes" : [
                0,
                1,
                2,
                3,
                4
            ]
        }
    ],
    "nodes" : [
        {
            "name" : "Light",
            "rotation" : [
                0.16907575726509094,
                0.7558803558349609,
                -0.27217137813568115,
                0.570947527885437
            ],
            "scale" : [
                0.8348054885864258,
                0.834805428981781,
                0.8348053097724915
            ],
            "translation" : [
                73.03330993652344,
                195.94625854492188,
                31.65020751953125
            ]
        },
        {
            "name" : "Camera",
            "rotation" : [
                0.483536034822464,
                0.33687159419059753,
                -0.20870360732078552,
                0.7804827094078064
            ],
            "scale" : [
                0.8348053097724915,
                0.8348054885864258,
                0.8348054885864258
            ],
            "translation" : [
                75.773681640625,
                195.15689086914062,
                38.271240234375
            ]
        },
        {
            "mesh" : 0,
            "name" : "FoxLPC",
            "rotation" : [
                0,
                0.0008715487783774734,
                0,
                1
            ],
            "scale" : [
                -98.16454315185547,
                98.16454315185547,
                98.16454315185547
            ],
            "translation" : [
                69.62528991699219,
                189.36880493164062,
                12.013641357421875
            ]
        },
        {
            "name" : "Empty",
            "rotation" : [
                0.7071068286895752,
                0,
                0,
                0.7071067094802856
            ],
            "translation" : [
                0,
                2.534358024597168,
                0
            ]
        },
        {
            "name" : "Empty.001",
            "rotation" : [
                0.5,
                -0.5,
                0.5,
                0.4999999701976776
            ],
            "scale" : [
                1.0332976579666138,
                1.0332976579666138,
                1.0332976579666138
            ],
            "translation" : [
                0,
                2.6082186698913574,
                0
            ]
        }
    ],
    "materials" : [
        {
            "doubleSided" : true,
            "emissiveFactor" : [
                0,
                0,
                0
            ],
            "name" : "Body",
            "pbrMetallicRoughness" : {
                "baseColorFactor" : [
                    0.8307700753211975,
                    0.27049773931503296,
                    0.0761854499578476,
                    1
                ],
                "metallicFactor" : 0,
                "roughnessFactor" : 1
            }
        },
        {
            "doubleSided" : true,
            "emissiveFactor" : [
                0,
                0,
                0
            ],
            "name" : "Brown",
            "pbrMetallicRoughness" : {
                "baseColorFactor" : [
                    0.2050788551568985,
                    0.12213875353336334,
                    0.07818743586540222,
                    1
                ],
                "metallicFactor" : 0,
                "roughnessFactor" : 0.5
            }
        },
        {
            "doubleSided" : true,
            "emissiveFactor" : [
                0,
                0,
                0
            ],
            "name" : "White",
            "pbrMetallicRoughness" : {
                "baseColorFactor" : [
                    1,
                    1,
                    1,
                    1
                ],
                "metallicFactor" : 0,
                "roughnessFactor" : 0.5
            }
        }
    ],
    "meshes" : [
        {
            "name" : "Cylinder",
            "primitives" : [
                {
                    "attributes" : {
                        "POSITION" : 0,
                        "NORMAL" : 1,
                        "TEXCOORD_0" : 2
                    },
                    "indices" : 3,
                    "material" : 0
                },
                {
                    "attributes" : {
                        "POSITION" : 4,
                        "NORMAL" : 5,
                        "TEXCOORD_0" : 6
                    },
                    "indices" : 7,
                    "material" : 1
                },
                {
                    "attributes" : {
                        "POSITION" : 8,
                        "NORMAL" : 9,
                        "TEXCOORD_0" : 10
                    },
                    "indices" : 11,
                    "material" : 2
                }
            ]
        }
    ],
    "accessors" : [
        {
            "bufferView" : 0,
            "componentType" : 5126,
            "count" : 381,
            "max" : [
                1.9509494304656982,
                2.6444339752197266,
                1.441640853881836
            ],
            "min" : [
                -1.3306955099105835,
                -1.9024875164031982,
                -1.404932975769043
            ],
            "type" : "VEC3"
        },
        {
            "bufferView" : 1,
            "componentType" : 5126,
            "count" : 381,
            "type" : "VEC3"
        },
        {
            "bufferView" : 2,
            "componentType" : 5126,
            "count" : 381,
            "type" : "VEC2"
        },
        {
            "bufferView" : 3,
            "componentType" : 5123,
            "count" : 387,
            "type" : "SCALAR"
        },
        {
            "bufferView" : 4,
            "componentType" : 5126,
            "count" : 92,
            "max" : [
                0.29903721809387207,
                -0.06570887565612793,
                0.6938629150390625
            ],
            "min" : [
                -1.0468910932540894,
                -1.9024875164031982,
                -1.0115909576416016
            ],
            "type" : "VEC3"
        },
        {
            "bufferView" : 5,
            "componentType" : 5126,
            "count" : 92,
            "type" : "VEC3"
        },
        {
            "bufferView" : 6,
            "componentType" : 5126,
            "count" : 92,
            "type" : "VEC2"
        },
        {
            "bufferView" : 7,
            "componentType" : 5123,
            "count" : 96,
            "type" : "SCALAR"
        },
        {
            "bufferView" : 8,
            "componentType" : 5126,
            "count" : 136,
            "max" : [
                1.3383386135101318,
                2.6444339752197266,
                1.3502111434936523
            ],
            "min" : [
                -1.3306955099105835,
                -1.9024875164031982,
                -0.4741029739379883
            ],
            "type" : "VEC3"
        },
        {
            "bufferView" : 9,
            "componentType" : 5126,
            "count" : 136,
            "type" : "VEC3"
        },
        {
            "bufferView" : 10,
            "componentType" : 5126,
            "count" : 136,
            "type" : "VEC2"
        },
        {
            "bufferView" : 11,
            "componentType" : 5123,
            "count" : 144,
            "type" : "SCALAR"
        }
    ],
    "bufferViews" : [
        {
            "buffer" : 0,
            "byteLength" : 4572,
            "byteOffset" : 0
        },
        {
            "buffer" : 0,
            "byteLength" : 4572,
            "byteOffset" : 4572
        },
        {
            "buffer" : 0,
            "byteLength" : 3048,
            "byteOffset" : 9144
        },
        {
            "buffer" : 0,
            "byteLength" : 774,
            "byteOffset" : 12192
        },
        {
            "buffer" : 0,
            "byteLength" : 1104,
            "byteOffset" : 12968
        },
        {
            "buffer" : 0,
            "byteLength" : 1104,
            "byteOffset" : 14072
        },
        {
            "buffer" : 0,
            "byteLength" : 736,
            "byteOffset" : 15176
        },
        {
            "buffer" : 0,
            "byteLength" : 192,
            "byteOffset" : 15912
        },
        {
            "buffer" : 0,
            "byteLength" : 1632,
            "byteOffset" : 16104
        },
        {
            "buffer" : 0,
            "byteLength" : 1632,
            "byteOffset" : 17736
        },
        {
            "buffer" : 0,
            "byteLength" : 1088,
            "byteOffset" : 19368
        },
        {
            "buffer" : 0,
            "byteLength" : 288,
            "byteOffset" : 20456
        }
    ],
    "buffers" : [
        {
            "byteLength" : 20744,
            "uri" : "data:application/octet-stream;base64,"
        }
    ]
}
